<mxfile host="65bd71144e">
    <diagram id="3wMZXVSvwXNus4WQiAVK" name="Page-1">
        <mxGraphModel dx="2132" dy="1175" grid="1" gridSize="10" guides="1" tooltips="1" connect="1" arrows="1" fold="1" page="1" pageScale="1" pageWidth="850" pageHeight="1100" math="0" shadow="0">
            <root>
                <mxCell id="0"/>
                <mxCell id="1" parent="0"/>
                <mxCell id="6" style="edgeStyle=none;html=1;entryX=0;entryY=0.5;entryDx=0;entryDy=0;" parent="1" source="2" target="5" edge="1">
                    <mxGeometry relative="1" as="geometry"/>
                </mxCell>
                <mxCell id="2" value="" style="ellipse;whiteSpace=wrap;html=1;aspect=fixed;" parent="1" vertex="1">
                    <mxGeometry x="40" y="280" width="40" height="40" as="geometry"/>
                </mxCell>
                <mxCell id="4" value="Аутентификация" style="text;html=1;align=center;verticalAlign=middle;whiteSpace=wrap;rounded=0;" parent="1" vertex="1">
                    <mxGeometry x="30" y="320" width="60" height="30" as="geometry"/>
                </mxCell>
                <mxCell id="8" style="edgeStyle=none;html=1;entryX=0;entryY=0.5;entryDx=0;entryDy=0;" parent="1" source="5" target="7" edge="1">
                    <mxGeometry relative="1" as="geometry"/>
                </mxCell>
                <mxCell id="5" value="&lt;span style=&quot;color: rgb(0, 0, 0);&quot;&gt;Ввод логина почты и пароля&lt;/span&gt;" style="rounded=1;whiteSpace=wrap;html=1;" parent="1" vertex="1">
                    <mxGeometry x="120" y="270" width="120" height="60" as="geometry"/>
                </mxCell>
                <mxCell id="19" value="" style="edgeStyle=orthogonalEdgeStyle;html=1;entryX=0;entryY=0.5;entryDx=0;entryDy=0;rounded=0;" parent="1" source="7" target="10" edge="1">
                    <mxGeometry x="-0.0003" relative="1" as="geometry">
                        <mxPoint as="offset"/>
                    </mxGeometry>
                </mxCell>
                <mxCell id="26" style="edgeStyle=orthogonalEdgeStyle;html=1;entryX=0;entryY=0.5;entryDx=0;entryDy=0;rounded=0;curved=0;startArrow=dash;startFill=0;" parent="1" source="7" target="25" edge="1">
                    <mxGeometry relative="1" as="geometry"/>
                </mxCell>
                <mxCell id="7" value="&lt;font style=&quot;font-size: 21px;&quot;&gt;&lt;b&gt;X&lt;/b&gt;&lt;/font&gt;" style="rhombus;whiteSpace=wrap;html=1;" parent="1" vertex="1">
                    <mxGeometry x="280" y="280" width="40" height="40" as="geometry"/>
                </mxCell>
                <mxCell id="9" value="Пользователь был зарегистрирован?" style="text;html=1;align=left;verticalAlign=middle;whiteSpace=wrap;rounded=0;" parent="1" vertex="1">
                    <mxGeometry x="330" y="280" width="120" height="40" as="geometry"/>
                </mxCell>
                <mxCell id="35" style="edgeStyle=orthogonalEdgeStyle;html=1;entryX=0;entryY=0.5;entryDx=0;entryDy=0;rounded=0;curved=0;" parent="1" source="10" target="28" edge="1">
                    <mxGeometry relative="1" as="geometry"/>
                </mxCell>
                <mxCell id="10" value="Классифицировать права пользователя" style="rounded=1;whiteSpace=wrap;html=1;" parent="1" vertex="1">
                    <mxGeometry x="320" y="330" width="120" height="60" as="geometry"/>
                </mxCell>
                <mxCell id="36" style="edgeStyle=orthogonalEdgeStyle;html=1;entryX=0;entryY=0.5;entryDx=0;entryDy=0;rounded=0;curved=0;" parent="1" source="25" target="28" edge="1">
                    <mxGeometry relative="1" as="geometry"/>
                </mxCell>
                <mxCell id="25" value="Пропустить авторизацию, выдать минимальные права" style="rounded=1;whiteSpace=wrap;html=1;" parent="1" vertex="1">
                    <mxGeometry x="320" y="210" width="120" height="60" as="geometry"/>
                </mxCell>
                <mxCell id="28" value="" style="ellipse;whiteSpace=wrap;html=1;aspect=fixed;strokeWidth=5;" parent="1" vertex="1">
                    <mxGeometry x="480" y="280" width="40" height="40" as="geometry"/>
                </mxCell>
                <mxCell id="33" style="edgeStyle=none;html=1;entryX=0;entryY=0.5;entryDx=0;entryDy=0;" parent="1" source="30" target="32" edge="1">
                    <mxGeometry relative="1" as="geometry"/>
                </mxCell>
                <mxCell id="30" value="" style="ellipse;whiteSpace=wrap;html=1;aspect=fixed;" parent="1" vertex="1">
                    <mxGeometry x="40" y="80" width="40" height="40" as="geometry"/>
                </mxCell>
                <mxCell id="31" value="Регистрация&amp;nbsp;" style="text;html=1;align=center;verticalAlign=middle;whiteSpace=wrap;rounded=0;" parent="1" vertex="1">
                    <mxGeometry x="30" y="120" width="60" height="30" as="geometry"/>
                </mxCell>
                <mxCell id="46" style="edgeStyle=none;html=1;entryX=0;entryY=0.5;entryDx=0;entryDy=0;" parent="1" source="32" target="39" edge="1">
                    <mxGeometry relative="1" as="geometry"/>
                </mxCell>
                <mxCell id="32" value="Ввод логина почты и пароля" style="rounded=1;whiteSpace=wrap;html=1;" parent="1" vertex="1">
                    <mxGeometry x="120" y="70" width="120" height="60" as="geometry"/>
                </mxCell>
                <mxCell id="37" value="" style="edgeStyle=orthogonalEdgeStyle;html=1;entryX=0;entryY=0.5;entryDx=0;entryDy=0;rounded=0;" parent="1" source="39" target="42" edge="1">
                    <mxGeometry x="-0.0003" relative="1" as="geometry">
                        <mxPoint as="offset"/>
                    </mxGeometry>
                </mxCell>
                <mxCell id="38" style="edgeStyle=orthogonalEdgeStyle;html=1;entryX=0;entryY=0.5;entryDx=0;entryDy=0;rounded=0;curved=0;startArrow=dash;startFill=0;" parent="1" source="39" target="44" edge="1">
                    <mxGeometry relative="1" as="geometry"/>
                </mxCell>
                <mxCell id="39" value="&lt;font style=&quot;font-size: 21px;&quot;&gt;&lt;b&gt;X&lt;/b&gt;&lt;/font&gt;" style="rhombus;whiteSpace=wrap;html=1;" parent="1" vertex="1">
                    <mxGeometry x="280" y="80" width="40" height="40" as="geometry"/>
                </mxCell>
                <mxCell id="40" value="Пользователь уже зарегистрирован?" style="text;html=1;align=left;verticalAlign=middle;whiteSpace=wrap;rounded=0;" parent="1" vertex="1">
                    <mxGeometry x="330" y="80" width="120" height="40" as="geometry"/>
                </mxCell>
                <mxCell id="41" style="edgeStyle=orthogonalEdgeStyle;html=1;entryX=0;entryY=0.5;entryDx=0;entryDy=0;rounded=0;curved=0;" parent="1" source="42" target="45" edge="1">
                    <mxGeometry relative="1" as="geometry"/>
                </mxCell>
                <mxCell id="42" value="Отклонить регистрацию" style="rounded=1;whiteSpace=wrap;html=1;" parent="1" vertex="1">
                    <mxGeometry x="320" y="130" width="120" height="60" as="geometry"/>
                </mxCell>
                <mxCell id="43" style="edgeStyle=orthogonalEdgeStyle;html=1;entryX=0;entryY=0.5;entryDx=0;entryDy=0;rounded=0;curved=0;" parent="1" source="44" target="45" edge="1">
                    <mxGeometry relative="1" as="geometry"/>
                </mxCell>
                <mxCell id="44" value="Зарегистрировать нового пользователя" style="rounded=1;whiteSpace=wrap;html=1;" parent="1" vertex="1">
                    <mxGeometry x="320" y="10" width="120" height="60" as="geometry"/>
                </mxCell>
                <mxCell id="45" value="" style="ellipse;whiteSpace=wrap;html=1;aspect=fixed;strokeWidth=5;" parent="1" vertex="1">
                    <mxGeometry x="480" y="80" width="40" height="40" as="geometry"/>
                </mxCell>
                <mxCell id="50" style="edgeStyle=none;html=1;entryX=0;entryY=0.5;entryDx=0;entryDy=0;" parent="1" source="47" target="51" edge="1">
                    <mxGeometry relative="1" as="geometry">
                        <mxPoint x="120" y="500" as="targetPoint"/>
                    </mxGeometry>
                </mxCell>
                <mxCell id="47" value="" style="ellipse;whiteSpace=wrap;html=1;aspect=fixed;" parent="1" vertex="1">
                    <mxGeometry x="40" y="480" width="40" height="40" as="geometry"/>
                </mxCell>
                <mxCell id="48" value="Поиск маршрута" style="text;html=1;align=center;verticalAlign=middle;whiteSpace=wrap;rounded=0;" parent="1" vertex="1">
                    <mxGeometry x="30" y="520" width="60" height="30" as="geometry"/>
                </mxCell>
                <mxCell id="88" style="edgeStyle=none;html=1;exitX=1;exitY=0.5;exitDx=0;exitDy=0;entryX=0;entryY=0.5;entryDx=0;entryDy=0;" edge="1" parent="1" source="51" target="87">
                    <mxGeometry relative="1" as="geometry"/>
                </mxCell>
                <mxCell id="51" value="Выбрать схему метро" style="rounded=1;whiteSpace=wrap;html=1;" vertex="1" parent="1">
                    <mxGeometry x="120" y="470" width="120" height="60" as="geometry"/>
                </mxCell>
                <mxCell id="53" value="Регистрация&amp;nbsp;&lt;br&gt;Завершена" style="text;html=1;align=left;verticalAlign=middle;whiteSpace=wrap;rounded=0;" vertex="1" parent="1">
                    <mxGeometry x="530" y="85" width="60" height="30" as="geometry"/>
                </mxCell>
                <mxCell id="54" value="Аутентификация завершена" style="text;html=1;align=left;verticalAlign=middle;whiteSpace=wrap;rounded=0;" vertex="1" parent="1">
                    <mxGeometry x="530" y="285" width="60" height="30" as="geometry"/>
                </mxCell>
                <mxCell id="91" style="edgeStyle=orthogonalEdgeStyle;html=1;exitX=0.5;exitY=0;exitDx=0;exitDy=0;entryX=0;entryY=0.5;entryDx=0;entryDy=0;rounded=0;curved=0;" edge="1" parent="1" source="87" target="89">
                    <mxGeometry relative="1" as="geometry"/>
                </mxCell>
                <mxCell id="92" style="edgeStyle=orthogonalEdgeStyle;html=1;exitX=0.5;exitY=1;exitDx=0;exitDy=0;entryX=0;entryY=0.5;entryDx=0;entryDy=0;rounded=0;curved=0;" edge="1" parent="1" source="87" target="90">
                    <mxGeometry relative="1" as="geometry"/>
                </mxCell>
                <mxCell id="87" value="&lt;font style=&quot;font-size: 24px;&quot;&gt;&lt;b style=&quot;&quot;&gt;+&lt;/b&gt;&lt;/font&gt;" style="rhombus;whiteSpace=wrap;html=1;" vertex="1" parent="1">
                    <mxGeometry x="280" y="480" width="40" height="40" as="geometry"/>
                </mxCell>
                <mxCell id="97" style="edgeStyle=orthogonalEdgeStyle;html=1;exitX=1;exitY=0.5;exitDx=0;exitDy=0;entryX=0.5;entryY=0;entryDx=0;entryDy=0;rounded=0;curved=0;" edge="1" parent="1" source="89" target="95">
                    <mxGeometry relative="1" as="geometry"/>
                </mxCell>
                <mxCell id="89" value="Выбрать начальную станцию" style="rounded=1;whiteSpace=wrap;html=1;" vertex="1" parent="1">
                    <mxGeometry x="320" y="420" width="120" height="60" as="geometry"/>
                </mxCell>
                <mxCell id="96" style="edgeStyle=orthogonalEdgeStyle;html=1;exitX=1;exitY=0.5;exitDx=0;exitDy=0;entryX=0.5;entryY=1;entryDx=0;entryDy=0;rounded=0;curved=0;" edge="1" parent="1" source="90" target="95">
                    <mxGeometry relative="1" as="geometry"/>
                </mxCell>
                <mxCell id="90" value="Выбрать конечную станцию" style="rounded=1;whiteSpace=wrap;html=1;" vertex="1" parent="1">
                    <mxGeometry x="320" y="520" width="120" height="60" as="geometry"/>
                </mxCell>
                <mxCell id="99" style="edgeStyle=none;html=1;exitX=1;exitY=0.5;exitDx=0;exitDy=0;entryX=0;entryY=0.5;entryDx=0;entryDy=0;startArrow=dash;startFill=0;" edge="1" parent="1" source="95" target="98">
                    <mxGeometry relative="1" as="geometry"/>
                </mxCell>
                <mxCell id="95" value="&lt;font style=&quot;font-size: 21px;&quot;&gt;&lt;b&gt;X&lt;/b&gt;&lt;/font&gt;" style="rhombus;whiteSpace=wrap;html=1;" vertex="1" parent="1">
                    <mxGeometry x="440" y="480" width="40" height="40" as="geometry"/>
                </mxCell>
                <mxCell id="122" style="edgeStyle=orthogonalEdgeStyle;html=1;exitX=1;exitY=0.5;exitDx=0;exitDy=0;entryX=0;entryY=0.5;entryDx=0;entryDy=0;rounded=0;curved=0;" edge="1" parent="1" source="98" target="106">
                    <mxGeometry relative="1" as="geometry">
                        <Array as="points">
                            <mxPoint x="660" y="500"/>
                            <mxPoint x="660" y="590"/>
                            <mxPoint x="30" y="590"/>
                            <mxPoint x="30" y="690"/>
                        </Array>
                    </mxGeometry>
                </mxCell>
                <mxCell id="98" value="Найти оптимальные маршруты" style="rounded=1;whiteSpace=wrap;html=1;" vertex="1" parent="1">
                    <mxGeometry x="520" y="470" width="120" height="60" as="geometry"/>
                </mxCell>
                <mxCell id="109" style="edgeStyle=orthogonalEdgeStyle;html=1;exitX=0.5;exitY=1;exitDx=0;exitDy=0;entryX=0;entryY=0.5;entryDx=0;entryDy=0;rounded=0;curved=0;" edge="1" parent="1" source="106" target="107">
                    <mxGeometry relative="1" as="geometry"/>
                </mxCell>
                <mxCell id="121" style="edgeStyle=orthogonalEdgeStyle;html=1;exitX=0.5;exitY=0;exitDx=0;exitDy=0;entryX=0;entryY=0.5;entryDx=0;entryDy=0;rounded=0;curved=0;startArrow=dash;startFill=0;" edge="1" parent="1" source="106" target="117">
                    <mxGeometry relative="1" as="geometry"/>
                </mxCell>
                <mxCell id="106" value="&lt;font style=&quot;font-size: 21px;&quot;&gt;&lt;b&gt;X&lt;/b&gt;&lt;/font&gt;" style="rhombus;whiteSpace=wrap;html=1;" vertex="1" parent="1">
                    <mxGeometry x="50" y="670" width="40" height="40" as="geometry"/>
                </mxCell>
                <mxCell id="119" style="edgeStyle=orthogonalEdgeStyle;html=1;exitX=1;exitY=0.5;exitDx=0;exitDy=0;entryX=0.5;entryY=1;entryDx=0;entryDy=0;rounded=0;curved=0;" edge="1" parent="1" source="107" target="117">
                    <mxGeometry relative="1" as="geometry"/>
                </mxCell>
                <mxCell id="107" value="Сохранить историю" style="rounded=1;whiteSpace=wrap;html=1;" vertex="1" parent="1">
                    <mxGeometry x="110" y="720" width="120" height="60" as="geometry"/>
                </mxCell>
                <mxCell id="113" style="edgeStyle=none;html=1;entryX=0;entryY=0.5;entryDx=0;entryDy=0;" edge="1" parent="1" source="110" target="112">
                    <mxGeometry relative="1" as="geometry"/>
                </mxCell>
                <mxCell id="110" value="Визуализировать маршрут" style="rounded=1;whiteSpace=wrap;html=1;" vertex="1" parent="1">
                    <mxGeometry x="320" y="600" width="120" height="60" as="geometry"/>
                </mxCell>
                <mxCell id="112" value="" style="ellipse;whiteSpace=wrap;html=1;aspect=fixed;strokeWidth=5;" vertex="1" parent="1">
                    <mxGeometry x="470" y="610" width="40" height="40" as="geometry"/>
                </mxCell>
                <mxCell id="114" value="Маршрут найден" style="text;html=1;align=left;verticalAlign=middle;whiteSpace=wrap;rounded=0;" vertex="1" parent="1">
                    <mxGeometry x="520" y="615" width="60" height="30" as="geometry"/>
                </mxCell>
                <mxCell id="116" value="Имеются ли права" style="text;html=1;align=left;verticalAlign=middle;whiteSpace=wrap;rounded=0;" vertex="1" parent="1">
                    <mxGeometry x="110" y="670" width="120" height="40" as="geometry"/>
                </mxCell>
                <mxCell id="118" style="edgeStyle=none;html=1;exitX=1;exitY=0.5;exitDx=0;exitDy=0;startArrow=dash;startFill=0;" edge="1" parent="1" source="117" target="110">
                    <mxGeometry relative="1" as="geometry"/>
                </mxCell>
                <mxCell id="117" value="&lt;font style=&quot;font-size: 21px;&quot;&gt;&lt;b&gt;X&lt;/b&gt;&lt;/font&gt;" style="rhombus;whiteSpace=wrap;html=1;" vertex="1" parent="1">
                    <mxGeometry x="240" y="610" width="40" height="40" as="geometry"/>
                </mxCell>
                <mxCell id="129" style="edgeStyle=none;html=1;exitX=1;exitY=0.5;exitDx=0;exitDy=0;entryX=0;entryY=0.5;entryDx=0;entryDy=0;" edge="1" parent="1" source="124" target="130">
                    <mxGeometry relative="1" as="geometry">
                        <mxPoint x="110" y="880" as="targetPoint"/>
                    </mxGeometry>
                </mxCell>
                <mxCell id="124" value="" style="ellipse;whiteSpace=wrap;html=1;aspect=fixed;" vertex="1" parent="1">
                    <mxGeometry x="40" y="860" width="40" height="40" as="geometry"/>
                </mxCell>
                <mxCell id="126" value="Просмотреть историю" style="text;html=1;align=center;verticalAlign=middle;whiteSpace=wrap;rounded=0;" vertex="1" parent="1">
                    <mxGeometry x="30" y="900" width="60" height="30" as="geometry"/>
                </mxCell>
                <mxCell id="132" style="edgeStyle=orthogonalEdgeStyle;html=1;exitX=0.5;exitY=0;exitDx=0;exitDy=0;entryX=0;entryY=0.5;entryDx=0;entryDy=0;startArrow=dash;startFill=0;rounded=0;curved=0;" edge="1" parent="1" source="130" target="131">
                    <mxGeometry relative="1" as="geometry"/>
                </mxCell>
                <mxCell id="142" style="edgeStyle=orthogonalEdgeStyle;html=1;exitX=0.5;exitY=1;exitDx=0;exitDy=0;entryX=0.5;entryY=1;entryDx=0;entryDy=0;rounded=0;curved=0;" edge="1" parent="1" source="130" target="139">
                    <mxGeometry relative="1" as="geometry">
                        <Array as="points">
                            <mxPoint x="140" y="920"/>
                            <mxPoint x="460" y="920"/>
                        </Array>
                    </mxGeometry>
                </mxCell>
                <mxCell id="130" value="&lt;font style=&quot;font-size: 21px;&quot;&gt;&lt;b&gt;X&lt;/b&gt;&lt;/font&gt;" style="rhombus;whiteSpace=wrap;html=1;" vertex="1" parent="1">
                    <mxGeometry x="120" y="860" width="40" height="40" as="geometry"/>
                </mxCell>
                <mxCell id="138" style="edgeStyle=none;html=1;exitX=1;exitY=0.5;exitDx=0;exitDy=0;entryX=0;entryY=0.5;entryDx=0;entryDy=0;" edge="1" parent="1" source="131" target="136">
                    <mxGeometry relative="1" as="geometry"/>
                </mxCell>
                <mxCell id="131" value="Сохранить историю" style="rounded=1;whiteSpace=wrap;html=1;" vertex="1" parent="1">
                    <mxGeometry x="160" y="790" width="120" height="60" as="geometry"/>
                </mxCell>
                <mxCell id="133" value="Имеются ли права" style="text;html=1;align=left;verticalAlign=middle;whiteSpace=wrap;rounded=0;" vertex="1" parent="1">
                    <mxGeometry x="170" y="860" width="120" height="40" as="geometry"/>
                </mxCell>
                <mxCell id="141" style="edgeStyle=orthogonalEdgeStyle;html=1;exitX=1;exitY=0.5;exitDx=0;exitDy=0;entryX=0.5;entryY=0;entryDx=0;entryDy=0;rounded=0;curved=0;" edge="1" parent="1" source="136" target="139">
                    <mxGeometry relative="1" as="geometry"/>
                </mxCell>
                <mxCell id="136" value="Визаулизировать историю" style="rounded=1;whiteSpace=wrap;html=1;" vertex="1" parent="1">
                    <mxGeometry x="320" y="790" width="120" height="60" as="geometry"/>
                </mxCell>
                <mxCell id="144" style="edgeStyle=none;html=1;exitX=1;exitY=0.5;exitDx=0;exitDy=0;entryX=0;entryY=0.5;entryDx=0;entryDy=0;startArrow=dash;startFill=0;" edge="1" parent="1" source="139" target="143">
                    <mxGeometry relative="1" as="geometry"/>
                </mxCell>
                <mxCell id="139" value="&lt;font style=&quot;font-size: 21px;&quot;&gt;&lt;b&gt;X&lt;/b&gt;&lt;/font&gt;" style="rhombus;whiteSpace=wrap;html=1;" vertex="1" parent="1">
                    <mxGeometry x="440" y="860" width="40" height="40" as="geometry"/>
                </mxCell>
                <mxCell id="143" value="" style="ellipse;whiteSpace=wrap;html=1;aspect=fixed;strokeWidth=5;" vertex="1" parent="1">
                    <mxGeometry x="520" y="860" width="40" height="40" as="geometry"/>
                </mxCell>
                <mxCell id="145" value="Маршрут просмотрен" style="text;html=1;align=left;verticalAlign=middle;whiteSpace=wrap;rounded=0;" vertex="1" parent="1">
                    <mxGeometry x="570" y="860" width="60" height="30" as="geometry"/>
                </mxCell>
                <mxCell id="176" style="edgeStyle=none;html=1;exitX=1;exitY=0.5;exitDx=0;exitDy=0;entryX=0;entryY=0.5;entryDx=0;entryDy=0;" edge="1" parent="1" source="161" target="166">
                    <mxGeometry relative="1" as="geometry"/>
                </mxCell>
                <mxCell id="161" value="" style="ellipse;whiteSpace=wrap;html=1;aspect=fixed;" vertex="1" parent="1">
                    <mxGeometry x="40" y="1000" width="40" height="40" as="geometry"/>
                </mxCell>
                <mxCell id="162" value="Контроль&lt;div&gt;атрубитов&lt;/div&gt;" style="text;html=1;align=center;verticalAlign=middle;whiteSpace=wrap;rounded=0;" vertex="1" parent="1">
                    <mxGeometry x="30" y="1039.97" width="60" height="30" as="geometry"/>
                </mxCell>
                <mxCell id="164" style="edgeStyle=orthogonalEdgeStyle;html=1;exitX=0.5;exitY=0;exitDx=0;exitDy=0;entryX=0;entryY=0.5;entryDx=0;entryDy=0;startArrow=dash;startFill=0;rounded=0;curved=0;" edge="1" parent="1" source="166" target="168">
                    <mxGeometry relative="1" as="geometry"/>
                </mxCell>
                <mxCell id="165" style="edgeStyle=orthogonalEdgeStyle;html=1;exitX=0.5;exitY=1;exitDx=0;exitDy=0;entryX=0.5;entryY=1;entryDx=0;entryDy=0;rounded=0;curved=0;" edge="1" parent="1" source="166" target="173">
                    <mxGeometry relative="1" as="geometry">
                        <Array as="points">
                            <mxPoint x="140" y="1059.97"/>
                            <mxPoint x="460" y="1059.97"/>
                        </Array>
                    </mxGeometry>
                </mxCell>
                <mxCell id="166" value="&lt;font style=&quot;font-size: 21px;&quot;&gt;&lt;b&gt;X&lt;/b&gt;&lt;/font&gt;" style="rhombus;whiteSpace=wrap;html=1;" vertex="1" parent="1">
                    <mxGeometry x="120" y="999.97" width="40" height="40" as="geometry"/>
                </mxCell>
                <mxCell id="167" style="edgeStyle=none;html=1;exitX=1;exitY=0.5;exitDx=0;exitDy=0;entryX=0;entryY=0.5;entryDx=0;entryDy=0;" edge="1" parent="1" source="168" target="171">
                    <mxGeometry relative="1" as="geometry"/>
                </mxCell>
                <mxCell id="168" value="изменить атрибут" style="rounded=1;whiteSpace=wrap;html=1;" vertex="1" parent="1">
                    <mxGeometry x="160" y="929.97" width="120" height="60" as="geometry"/>
                </mxCell>
                <mxCell id="169" value="Имеются ли права" style="text;html=1;align=left;verticalAlign=middle;whiteSpace=wrap;rounded=0;" vertex="1" parent="1">
                    <mxGeometry x="170" y="999.97" width="120" height="40" as="geometry"/>
                </mxCell>
                <mxCell id="170" style="edgeStyle=orthogonalEdgeStyle;html=1;exitX=1;exitY=0.5;exitDx=0;exitDy=0;entryX=0.5;entryY=0;entryDx=0;entryDy=0;rounded=0;curved=0;" edge="1" parent="1" source="171" target="173">
                    <mxGeometry relative="1" as="geometry"/>
                </mxCell>
                <mxCell id="171" value="подтвердить изменение" style="rounded=1;whiteSpace=wrap;html=1;" vertex="1" parent="1">
                    <mxGeometry x="320" y="929.97" width="120" height="60" as="geometry"/>
                </mxCell>
                <mxCell id="172" style="edgeStyle=none;html=1;exitX=1;exitY=0.5;exitDx=0;exitDy=0;entryX=0;entryY=0.5;entryDx=0;entryDy=0;startArrow=dash;startFill=0;" edge="1" parent="1" source="173" target="174">
                    <mxGeometry relative="1" as="geometry"/>
                </mxCell>
                <mxCell id="173" value="&lt;font style=&quot;font-size: 21px;&quot;&gt;&lt;b&gt;X&lt;/b&gt;&lt;/font&gt;" style="rhombus;whiteSpace=wrap;html=1;" vertex="1" parent="1">
                    <mxGeometry x="440" y="999.97" width="40" height="40" as="geometry"/>
                </mxCell>
                <mxCell id="174" value="" style="ellipse;whiteSpace=wrap;html=1;aspect=fixed;strokeWidth=5;" vertex="1" parent="1">
                    <mxGeometry x="520" y="999.97" width="40" height="40" as="geometry"/>
                </mxCell>
                <mxCell id="175" value="Изменения применены" style="text;html=1;align=left;verticalAlign=middle;whiteSpace=wrap;rounded=0;" vertex="1" parent="1">
                    <mxGeometry x="570" y="999.97" width="60" height="30" as="geometry"/>
                </mxCell>
            </root>
        </mxGraphModel>
    </diagram>
</mxfile>